HIERARCHY
ROOT Hips
{
	OFFSET	0.00	0.00	0.00
	CHANNELS 6 Xposition Yposition Zposition Zrotation Xrotation Yrotation
	JOINT LeftUpLeg
	{
		OFFSET	 0.126116	-0.014019	-0.065224
		CHANNELS 3 Zrotation Xrotation Yrotation
		JOINT LeftLeg
		{
			OFFSET	 0.000000	 0.000000	 0.569914
			CHANNELS 3 Zrotation Xrotation Yrotation
			JOINT LeftFoot
			{
				OFFSET	 0.000000	 0.000000	 0.544423
				CHANNELS 3 Zrotation Xrotation Yrotation
				JOINT LeftToeBase
				{
					OFFSET	 0.000000	 0.000000	 0.207117
					CHANNELS 3 Zrotation Xrotation Yrotation
					End Site
					{
						OFFSET	 0.000000	 0.000000	 0.207117
					}
				}
			}
		}
	}
	JOINT RightUpLeg
	{
		OFFSET	-0.124023	-0.008373	-0.065224
		CHANNELS 3 Zrotation Xrotation Yrotation
		JOINT RightLeg
		{
			OFFSET	 0.000000	 0.000000	 0.570047
			CHANNELS 3 Zrotation Xrotation Yrotation
			JOINT RightFoot
			{
				OFFSET	 0.000000	 0.000000	 0.544354
				CHANNELS 3 Zrotation Xrotation Yrotation
				JOINT RightToeBase
				{
					OFFSET	 0.000000	 0.000000	 0.207540
					CHANNELS 3 Zrotation Xrotation Yrotation
					End Site
					{
						OFFSET	 0.000000	 0.000000	 0.207540
					}
				}
			}
		}
	}
	JOINT Spine
	{
		OFFSET	 0.000184	-0.007763	 0.117403
		CHANNELS 3 Zrotation Xrotation Yrotation
		JOINT Spine1
		{
			OFFSET	 0.000000	 0.000000	 0.137269
			CHANNELS 3 Zrotation Xrotation Yrotation
			JOINT Spine2
			{
				OFFSET	 0.000000	 0.000000	 0.156879
				CHANNELS 3 Zrotation Xrotation Yrotation
				JOINT LeftShoulder
				{
					OFFSET	 0.080501	-0.002496	 0.160144
					CHANNELS 3 Zrotation Xrotation Yrotation
					JOINT LeftArm
					{
						OFFSET	 0.000000	 0.000000	 0.164363
						CHANNELS 3 Zrotation Xrotation Yrotation
						JOINT LeftForeArm
						{
							OFFSET	 0.000000	 0.000000	 0.364576
							CHANNELS 3 Zrotation Xrotation Yrotation
							JOINT LeftHand
							{
								OFFSET	 0.000000	 0.000000	 0.360812
								CHANNELS 3 Zrotation Xrotation Yrotation
								JOINT LeftHandIndex1
								{
									OFFSET	 0.000000	 0.000000	 0.086006
									CHANNELS 3 Zrotation Xrotation Yrotation
									JOINT LeftHandIndex2
									{
										OFFSET	 0.000000	 0.000000	 0.047237
										CHANNELS 3 Zrotation Xrotation Yrotation
										JOINT LeftHandIndex3
										{
											OFFSET	-0.004284	-0.000551	 0.038165
											CHANNELS 3 Zrotation Xrotation Yrotation
											End Site
											{
												OFFSET	-0.004284	-0.000551	 0.038165
											}
										}
									}
								}
							}
						}
					}
				}
				JOINT Neck
				{
					OFFSET	 0.000000	 0.000000	 0.176489
					CHANNELS 3 Zrotation Xrotation Yrotation
					JOINT Head
					{
						OFFSET	 0.000000	-0.001747	 0.077940
						CHANNELS 3 Zrotation Xrotation Yrotation
						End Site
						{
							OFFSET	 0.000000	-0.001747	 0.077940
						}
					}
				}
				JOINT RightShoulder
				{
					OFFSET	-0.080363	 0.000306	 0.159706
					CHANNELS 3 Zrotation Xrotation Yrotation
					JOINT RightArm
					{
						OFFSET	 0.000000	 0.000000	 0.164196
						CHANNELS 3 Zrotation Xrotation Yrotation
						JOINT RightForeArm
						{
							OFFSET	 0.000000	 0.000000	 0.365611
							CHANNELS 3 Zrotation Xrotation Yrotation
							JOINT RightHand
							{
								OFFSET	 0.000000	 0.000000	 0.360648
								CHANNELS 3 Zrotation Xrotation Yrotation
								JOINT RightHandIndex1
								{
									OFFSET	 0.000000	 0.000000	 0.069977
									CHANNELS 3 Zrotation Xrotation Yrotation
									JOINT RightHandIndex2
									{
										OFFSET	 0.000000	 0.000000	 0.052305
										CHANNELS 3 Zrotation Xrotation Yrotation
										JOINT RightHandIndex3
										{
											OFFSET	 0.009002	-0.000782	 0.042196
											CHANNELS 3 Zrotation Xrotation Yrotation
											End Site
											{
												OFFSET	 0.009002	-0.000782	 0.042196
											}
										}
									}
								}
							}
						}
					}
				}
			}
		}
	}
}
MOTION
Frames:    4
Frame Time: 0.03333334
-0.719178	-0.030778	 1.253746	 168.826400	-11.562390	-0.022987	-28.480370	 1.878881	-166.975400	-1.682027	-29.078720	-1.530009	 16.220580	 76.988560	-31.324080	-2.385833	 28.452760	 0.000004	 1.524741	 2.769032	-178.271400	 10.572810	-33.077990	 5.940049	-90.716130	 82.836430	 91.958640	 2.384659	 28.388700	-0.000001	 12.414800	 9.584242	-14.990290	 4.849668	 8.739263	-6.598892	 12.597850	-2.821345	 12.461930	-91.776210	 78.527380	-180.000000	-19.972250	 44.060520	-18.247390	-27.216300	 20.238580	-65.829010	-39.593560	-36.157750	-23.019100	-4.130354	 21.526190	 0.991307	-5.167926	 0.731697	 3.519349	-1.378229	 35.397820	-2.634230	 14.918230	 5.168514	-3.947251	 9.020619	-14.499160	-4.219271	 89.782110	 78.203850	 180.000000	-51.821940	 4.243959	 91.854190	 11.673130	 0.267119	 129.979900	 11.537500	 11.461950	 8.808132	 5.716295	 19.173350	-3.684826	 5.027458	 0.246833	-9.377971	-2.350882	 35.473990	 5.254307
-0.717390	-0.031728	 1.252572	 168.282400	-11.270460	-0.033667	-29.549210	 1.277581	-166.623300	-1.358737	-28.719800	-1.357060	 15.710870	 76.429360	-31.019110	-2.385833	 28.452760	 0.000004	 0.737699	 1.974766	-177.667800	 11.006770	-33.469780	 6.247379	-92.393690	 83.203410	 93.339530	 2.384659	 28.388700	-0.000001	 14.672900	 7.928027	-15.406530	 6.244564	 10.435310	-6.126694	 12.772800	-5.175183	 12.555390	-91.776180	 78.527350	-180.000000	-27.152050	 40.977050	-21.226330	-25.277720	 21.388360	-71.676410	-41.421770	-36.425900	-24.257760	-4.130354	 21.526190	 0.991307	-5.167926	 0.731697	 3.519349	-1.378229	 35.397820	-2.634230	 15.134210	 5.641185	-4.723514	 8.869500	-16.788760	-4.163284	 89.782100	 78.203890	 180.000000	-50.593500	 2.321926	 93.791510	 12.867540	-1.271244	 127.364000	 5.050241	 11.616000	 9.781750	 5.716295	 19.173350	-3.684826	 5.027458	 0.246833	-9.377971	-2.350882	 35.473990	 5.254307
-0.717764	-0.031621	 1.252610	 167.684200	-10.919050	-0.177599	-30.724490	 1.067204	-166.253500	-1.017755	-28.124470	-1.170276	 14.976740	 75.878900	-30.464970	-2.385833	 28.452760	 0.000004	-0.041800	 1.463207	-177.199700	 11.421670	-33.729580	 6.526633	-97.070790	 83.326070	 97.762500	 2.384659	 28.388700	-0.000001	 17.186760	 6.169618	-15.994390	 8.004227	 11.712460	-6.494681	 12.856110	-6.977559	 13.154350	-91.776190	 78.527380	-180.000000	-31.876240	 38.905790	-28.719610	-24.364620	 21.883530	-74.318680	-42.699960	-36.369950	-24.798680	-4.130354	 21.526190	 0.991307	-5.167926	 0.731697	 3.519349	-1.378229	 35.397820	-2.634230	 15.122820	 5.849986	-5.202265	 8.736090	-18.716090	-4.349095	 89.782030	 78.203870	-179.999900	-48.733300	 0.203603	 95.393550	 14.199940	-3.383281	 124.271800	-2.034049	 11.973360	 10.700480	 5.716295	 19.173350	-3.684826	 5.027458	 0.246833	-9.377971	-2.350882	 35.473990	 5.254307
-0.721362	-0.030250	 1.253864	 167.151000	-10.907770	 0.053576	-31.866050	 1.236702	-165.831400	-0.642014	-27.903300	-0.985739	 16.053210	 75.970280	-31.805890	-2.385833	 28.452760	 0.000004	-1.003112	 1.722948	-176.917400	 11.766670	-33.281590	 6.645707	-98.770140	 83.407570	 99.196700	 2.384659	 28.388700	-0.000001	 19.677660	 4.776863	-17.001420	 10.039000	 12.453230	-8.297163	 12.763110	-7.997837	 14.118880	-91.776200	 78.527360	-180.000000	-33.443580	 38.130070	-37.653580	-24.487250	 21.800460	-73.955710	-43.506920	-36.321870	-24.887620	-4.130354	 21.526190	 0.991307	-5.167926	 0.731697	 3.519349	-1.378229	 35.397820	-2.634230	 14.706740	 5.439124	-4.981756	 8.388439	-19.722500	-5.025357	 89.782070	 78.203900	-180.000000	-46.379840	-2.155808	 96.993900	 15.155740	-5.643754	 120.069000	-9.061166	 12.074470	 11.406790	 5.716295	 19.173350	-3.684826	 5.027458	 0.246833	-9.377971	-2.350882	 35.473990	 5.254307
